<svg width="244" height="240" viewBox="0 0 244 240" fill="none" xmlns="http://www.w3.org/2000/svg">
<path d="M151.652 102.08L155.876 78.4H195.705L197.825 68.5L216.205 90.24L188.558 111L190.705 102.08H151.652ZM145.764 136.64L149.604 114.88H187.748L183.908 136.64H145.764ZM121.572 78.4H163.428L148.068 168H121.572V78.4Z" fill="black"/>
<path d="M58.4891 143.808L59.5131 136.256H93.6891L90.1051 156.48L58.4891 143.808ZM85.7051 118L58.4891 143.808L59.5131 150.336L54.2051 156.48L47.2251 133L113.657 71.616V168H71.2051L77.0491 150.976L79.6091 143.808L85.7051 118Z" fill="black"/>
<path d="M157.923 37.4131C163.744 39.6526 169.283 42.4587 174.476 45.7607L162.832 62.1943C150.988 54.7248 136.961 50.4004 121.923 50.4004C79.5074 50.4004 45.123 84.7847 45.123 127.2C45.1232 169.616 79.5075 204 121.923 204C164.338 204 198.723 169.616 198.723 127.2C198.723 122.634 198.323 118.161 197.559 113.813L216.489 108.406C217.43 113.729 217.923 119.207 217.923 124.8C217.923 127.774 217.782 130.715 217.511 133.618L243.846 148.823L207.846 211.177L183.644 197.203C175.989 203.482 167.321 208.569 157.923 212.186V240H85.9229V210.185C77.5764 206.425 69.8801 201.478 63.0498 195.559L36 211.177L0 148.823L30.9229 130.969C30.7902 128.93 30.7227 126.872 30.7227 124.8C30.7227 119.632 31.1416 114.561 31.9473 109.621L0 91.1768L36 28.8232L70.0889 48.5039C75.0316 44.9841 80.3316 41.9335 85.9229 39.415V0H157.923V37.4131Z" fill="#0088FF"/>
</svg>
